<?xml version="1.0" encoding="utf-8"?>
<!-- Generator: Adobe Illustrator 22.1.0, SVG Export Plug-In . SVG Version: 6.00 Build 0)  -->
<svg version="1.1" id="Layer_1" xmlns="http://www.w3.org/2000/svg" xmlns:xlink="http://www.w3.org/1999/xlink" x="0px" y="0px"
	 viewBox="0 0 14400 14400" style="enable-background:new 0 0 14400 14400;" xml:space="preserve">
<style type="text/css">
	.st0{fill:#4D896C;}
	.st1{fill:#FEFEFE;}
	.st2{fill:#FDFDFD;}
</style>
<g>
	<path class="st0" d="M7196.9,7170c6.7,0,13.5,0,20.2,0c6.3,0.1,9.9,3.6,9.9,10c0,2.4-0.2,4.8,0,7.1c0.6,5.9-3.1,9.8-6.5,13.7
		c-1.5,1.7-3.8,2.2-6.2,2.2c-11.6,0-23.2,0-34.8,0c-3.4,0-5.7-1.7-8-4.1c-5.9-6.5-5-14.3-4.2-21.9c0.4-4.2,4.4-6.9,8.9-7
		C7183.1,7169.9,7190,7170,7196.9,7170z"/>
	<path class="st0" d="M7188,7208.7c-0.2,2-1.1,3.2-2.8,3.3c-1.9,0.1-3.2-1-3.2-2.9c0-1.9,1.2-3,3.1-3
		C7186.9,7206.1,7187.6,7207.4,7188,7208.7z"/>
	<path class="st0" d="M7200,7208.7c-0.2,2-1.1,3.2-2.8,3.3c-1.9,0.1-3.2-1-3.2-2.9c0-1.9,1.2-3,3.1-3
		C7198.9,7206.1,7199.6,7207.4,7200,7208.7z"/>
	<path class="st0" d="M7212,7208.7c-0.2,2-1.1,3.2-2.8,3.3c-1.9,0.1-3.2-1-3.2-2.9c0-1.9,1.2-3,3.1-3
		C7210.9,7206.1,7211.6,7207.4,7212,7208.7z"/>
	<path class="st0" d="M7182,7218c-0.2,1.7-1.1,2.9-2.9,2.9c-1.9,0-3.1-1.1-3.1-3c0-1.7,1.1-2.8,2.8-2.9
		C7180.8,7215,7181.7,7216.2,7182,7218z"/>
	<path class="st0" d="M7200,7217.7c-0.2,2-1.1,3.2-2.8,3.3c-1.9,0.1-3.1-1-3.2-2.9c0-1.9,1.2-3,3.1-3
		C7198.9,7215.1,7199.7,7216.4,7200,7217.7z"/>
	<path class="st0" d="M7214.6,7214.9c2.1,0.2,3.3,1.2,3.3,3.1c0,1.7-1.1,2.8-2.8,2.9c-1.7,0.1-2.9-1-3-2.7
		C7211.9,7216.3,7213.2,7215.4,7214.6,7214.9z"/>
	<path class="st0" d="M7176,7227.1c-0.3,1.7-1.2,2.9-3,2.8c-1.9,0-3.1-1.1-3-3.1c0.1-1.7,1.2-2.8,2.9-2.8
		C7174.9,7224,7175.8,7225.3,7176,7227.1z"/>
	<path class="st0" d="M7200,7227c-0.2,1.7-1.1,2.9-2.9,2.9c-1.9,0-3.1-1.1-3.1-3c0-1.7,1.1-2.8,2.8-2.9
		C7198.8,7224,7199.7,7225.2,7200,7227z"/>
	<path class="st0" d="M7224,7227.1c-0.3,1.7-1.2,2.9-2.9,2.9c-1.9,0-3.1-1.1-3-3c0-1.7,1.1-2.8,2.9-2.9
		C7222.9,7224,7223.8,7225.3,7224,7227.1z"/>
	<path class="st1" d="M7197.3,7188c-7.1,0-14.2-0.1-21.4,0c-2,0-3.1-0.1-3-2.7c0.2-9.9-0.8-9.4,9.3-9.3c11.2,0,22.5,0,33.7,0
		c4.4,0,5,0.6,5,4.9c0.1,7,0.1,7-6.8,7C7208.6,7188,7202.9,7188,7197.3,7188z"/>
	<path class="st2" d="M7217.9,7194.2c-0.6,2.1-1.9,2.9-3.9,2.9c-11.3,0-22.7,0-34,0c-2,0-3.2-0.8-4.1-2.9
		C7190.1,7194.2,7203.9,7194.2,7217.9,7194.2z"/>
</g>
</svg>
