<?xml version="1.0" encoding="utf-8"?>
<!-- Generator: Adobe Illustrator 22.1.0, SVG Export Plug-In . SVG Version: 6.00 Build 0)  -->
<svg version="1.1" id="Layer_1" xmlns="http://www.w3.org/2000/svg" xmlns:xlink="http://www.w3.org/1999/xlink" x="0px" y="0px"
	 viewBox="0 0 8192 8192" style="enable-background:new 0 0 8192 8192;" xml:space="preserve">
<style type="text/css">
	.st0{fill:#4D896C;}
	.st1{fill:#FEFEFE;}
	.st2{fill:#FDFDFD;}
</style>
<g>
	<path class="st0" d="M4094.2,4079c3.9,0,7.8,0,11.6,0c3.6,0.1,5.7,2.1,5.7,5.8c0,1.4-0.1,2.8,0,4.1c0.3,3.4-1.8,5.6-3.7,7.9
		c-0.9,1-2.2,1.3-3.6,1.3c-6.7,0-13.4,0-20,0c-2,0-3.3-1-4.6-2.4c-3.4-3.7-2.9-8.2-2.4-12.6c0.2-2.4,2.5-4,5.1-4
		C4086.3,4078.9,4090.3,4079,4094.2,4079z"/>
	<path class="st0" d="M4089.2,4100.9c-0.1,1.1-0.6,1.8-1.6,1.9c-1.1,0.1-1.8-0.6-1.8-1.6c0-1.1,0.7-1.7,1.8-1.7
		C4088.5,4099.5,4088.9,4100.2,4089.2,4100.9z"/>
	<path class="st0" d="M4096,4100.9c-0.1,1.1-0.6,1.8-1.6,1.9c-1.1,0.1-1.8-0.6-1.8-1.6c0-1.1,0.7-1.7,1.8-1.7
		C4095.4,4099.5,4095.8,4100.2,4096,4100.9z"/>
	<path class="st0" d="M4102.8,4100.9c-0.1,1.1-0.6,1.8-1.6,1.9c-1.1,0.1-1.8-0.6-1.8-1.6c0-1.1,0.7-1.7,1.8-1.7
		C4102.2,4099.5,4102.6,4100.2,4102.8,4100.9z"/>
	<path class="st0" d="M4085.8,4106.2c-0.1,1-0.6,1.6-1.6,1.6c-1.1,0-1.8-0.6-1.8-1.7c0-1,0.6-1.6,1.6-1.6
		C4085.1,4104.5,4085.6,4105.2,4085.8,4106.2z"/>
	<path class="st0" d="M4096,4106.1c-0.1,1.1-0.6,1.8-1.6,1.9c-1.1,0.1-1.8-0.6-1.8-1.6c0-1.1,0.7-1.7,1.8-1.7
		C4095.4,4104.6,4095.8,4105.3,4096,4106.1z"/>
	<path class="st0" d="M4104.3,4104.5c1.2,0.1,1.9,0.7,1.9,1.8c0,1-0.6,1.6-1.6,1.6c-1,0.1-1.6-0.6-1.7-1.5
		C4102.8,4105.3,4103.5,4104.8,4104.3,4104.5z"/>
	<path class="st0" d="M4082.3,4111.4c-0.2,1-0.7,1.6-1.7,1.6c-1.1,0-1.8-0.6-1.7-1.8c0.1-1,0.7-1.6,1.6-1.6
		C4081.7,4109.7,4082.2,4110.4,4082.3,4111.4z"/>
	<path class="st0" d="M4096,4111.4c-0.1,1-0.6,1.6-1.6,1.6c-1.1,0-1.8-0.6-1.8-1.7c0-1,0.6-1.6,1.6-1.6
		C4095.3,4109.7,4095.8,4110.3,4096,4111.4z"/>
	<path class="st0" d="M4109.7,4111.4c-0.2,1-0.7,1.6-1.6,1.6c-1.1,0-1.8-0.6-1.7-1.7c0-1,0.6-1.6,1.6-1.6
		C4109,4109.7,4109.5,4110.4,4109.7,4111.4z"/>
	<path class="st1" d="M4094.5,4088.8c-4,0-8.1-0.1-12.2,0c-1.1,0-1.8-0.1-1.7-1.5c0.1-5.6-0.5-5.3,5.3-5.3c6.4,0,12.8,0,19.2,0
		c2.5,0,2.8,0.3,2.8,2.8c0.1,4,0.1,4-3.9,4C4100.9,4088.8,4097.6,4088.8,4094.5,4088.8z"/>
	<path class="st2" d="M4106.2,4093c-0.3,0.9-1.1,1.4-2.2,2h-19.3c-1.1-0.6-1.8-1.1-2.3-2H4106.2z"/>
</g>
</svg>
