<?xml version="1.0" encoding="utf-8"?>
<!-- Generator: Adobe Illustrator 22.1.0, SVG Export Plug-In . SVG Version: 6.00 Build 0)  -->
<svg version="1.1" id="Layer_1" xmlns="http://www.w3.org/2000/svg" xmlns:xlink="http://www.w3.org/1999/xlink" x="0px" y="0px"
	 viewBox="0 0 8192 8192" style="enable-background:new 0 0 8192 8192;" xml:space="preserve">
<style type="text/css">
	.st0{fill:#4D896C;}
</style>
<path class="st0" d="M4096.9,4106.5c-3.4,0-6.8,0-10.2,0c-0.9,0-1.6-0.2-1.6-1.1c-0.1-1,0.7-1.3,1.6-1.3c6.4-0.3,12.9-0.7,19.3-1.1
	c0.3,0,0.7-0.1,1-0.1c1.2,0,1.9,0.6,2,1.8c0,1.2-0.7,1.8-1.9,1.8c-2.3,0-4.6,0-6.9,0C4099.1,4106.5,4097.9,4106.5,4096.9,4106.5z"/>
<path class="st0" d="M4096.5,4091.3c-0.4,0.6-0.5,0.8-0.6,1c-1.3,2.2-1.3,2.2,0.5,3.9c0.9,0.9,1.1,1.6,0.6,2.7
	c-0.3,0.6-0.6,1.3-0.7,1.9c-0.3,1.3-1.1,1.9-2.6,1.5c0.5-1.2,0.9-2.4,1.4-3.6c0.3-0.7,0.2-1.1-0.5-1.6c-4.1-2.8-3.6-2.7-1.4-6.5
	c0.2-0.3,0.7-0.6,0.2-1c-0.4-0.3-0.9-0.3-1.3-0.1c-0.8,0.3-1.5,0.7-2.3,1.1c-0.7,0.5-0.9-0.1-1-0.5c-0.2-0.5-0.4-0.7,0.2-1.2
	c2.7-1.9,5.2-1.4,7.8,0.1c0.3,0.2,0.6,0.5,0.6,0.8c0.4,1.8,1.4,2.7,3.4,2.3c0.7-0.2,0.9,0.3,0.9,1c0,0.6-0.2,0.9-0.9,0.9
	c-0.2,0-0.4,0-0.6,0C4098.7,4094,4096.8,4094.3,4096.5,4091.3z"/>
<path class="st0" d="M4104.9,4101.8c-0.9,0.2-1,0-0.9-0.8c0.4-1.8,0.7-3.5,1.1-5.3c0.1-0.4,0.5-1-0.6-0.7c-0.8,0.2-1-0.8-1.4-1.3
	c-0.5-0.6,0.2-0.7,0.6-1c1-0.8,2-1.5,3-2.2c0.3-0.2,0.7-1.1,1.3-0.3c0.3,0.6,1.4,0.9,0.6,2c-0.6,0.8-0.6,2-0.8,3.1
	c-0.3,1.6-0.7,3.2-1,4.8C4106.5,4101.4,4106.1,4102.1,4104.9,4101.8z"/>
<path class="st0" d="M4088.6,4098.1c-0.6,0-1.1-0.1-1.6,0c-0.9,0.1-0.8-0.5-0.8-1c-0.1-0.7,0.2-0.8,0.9-0.9c1.4-0.1,2.8,0.5,4.2-0.5
	c0.5-0.3,1,0.4,1.3,0.8c0.3,0.5-0.3,0.7-0.6,0.9C4090.9,4098.4,4089.6,4098,4088.6,4098.1z"/>
<path class="st0" d="M4099.4,4085.6c-0.2,1.1-0.8,1.8-1.9,1.7c-1.1-0.1-1.8-0.7-1.7-1.8c0.1-1.1,0.7-1.8,1.8-1.7
	C4098.8,4083.8,4099.3,4084.5,4099.4,4085.6z"/>
</svg>
