<?xml version="1.0" encoding="utf-8"?>
<!-- Generator: Adobe Illustrator 22.1.0, SVG Export Plug-In . SVG Version: 6.00 Build 0)  -->
<svg version="1.1" id="Layer_1" xmlns="http://www.w3.org/2000/svg" xmlns:xlink="http://www.w3.org/1999/xlink" x="0px" y="0px"
	 viewBox="0 0 14400 14400" style="enable-background:new 0 0 14400 14400;" xml:space="preserve">
<style type="text/css">
	.st0{fill:#4D896C;}
</style>
<path class="st0" d="M7201.5,7218.5c-6,0-12,0-18,0c-1.5,0-2.8-0.3-2.9-2c-0.1-1.8,1.3-2.2,2.8-2.3c11.3-0.6,22.7-1.3,34-2
	c0.6,0,1.2-0.1,1.8-0.1c2.1,0,3.4,1,3.5,3.1c0,2.1-1.3,3.2-3.4,3.2c-4,0-8.1,0-12.1,0C7205.4,7218.5,7203.4,7218.5,7201.5,7218.5z"
	/>
<path class="st0" d="M7200.9,7191.8c-0.7,1.1-0.9,1.4-1.1,1.7c-2.2,3.8-2.2,3.9,0.9,6.8c1.6,1.5,2,2.9,1,4.8c-0.6,1.1-1,2.3-1.3,3.4
	c-0.6,2.3-1.9,3.4-4.5,2.6c0.8-2.1,1.6-4.2,2.5-6.3c0.5-1.2,0.4-2-0.8-2.8c-7.2-4.9-6.4-4.7-2.5-11.5c0.3-0.5,1.2-1.1,0.4-1.8
	c-0.7-0.5-1.5-0.6-2.3-0.2c-1.4,0.6-2.7,1.2-4,2c-1.3,0.8-1.5-0.2-1.8-0.9c-0.4-0.8-0.7-1.3,0.4-2.1c4.7-3.4,9.2-2.4,13.7,0.2
	c0.6,0.3,1,0.8,1.1,1.4c0.7,3.2,2.5,4.8,5.9,4.1c1.3-0.3,1.6,0.5,1.6,1.7c0,1.1-0.3,1.6-1.5,1.5c-0.3,0-0.7,0-1.1,0
	C7204.7,7196.5,7201.4,7197,7200.9,7191.8z"/>
<path class="st0" d="M7215.6,7210.2c-1.5,0.4-1.8,0-1.5-1.4c0.7-3.1,1.3-6.2,1.9-9.3c0.1-0.7,0.8-1.8-1.1-1.3
	c-1.4,0.4-1.7-1.4-2.4-2.3c-0.8-1,0.4-1.3,1-1.7c1.7-1.4,3.5-2.7,5.3-3.9c0.6-0.4,1.3-1.9,2.2-0.5c0.6,1,2.5,1.5,1,3.6
	c-1.1,1.4-1,3.6-1.4,5.5c-0.6,2.8-1.3,5.7-1.7,8.5C7218.5,7209.5,7217.8,7210.7,7215.6,7210.2z"/>
<path class="st0" d="M7187,7203.7c-1.1,0-2-0.1-2.8,0c-1.5,0.2-1.4-0.8-1.4-1.8c-0.1-1.2,0.4-1.4,1.5-1.5c2.5-0.2,5,0.8,7.4-0.8
	c0.8-0.5,1.8,0.7,2.2,1.4c0.5,0.8-0.5,1.2-1,1.6C7191.1,7204.2,7188.8,7203.6,7187,7203.7z"/>
<path class="st0" d="M7206,7181.7c-0.3,1.9-1.4,3.1-3.3,3c-1.9-0.1-3.1-1.3-3-3.2c0.1-1.9,1.3-3.1,3.2-3
	C7204.9,7178.5,7205.8,7179.7,7206,7181.7z"/>
</svg>
